<?xml version="1.0" standalone="no"?>
<!DOCTYPE svg PUBLIC "-//W3C//DTD SVG 20010904//EN"
 "http://www.w3.org/TR/2001/REC-SVG-20010904/DTD/svg10.dtd">
<svg version="1.0" xmlns="http://www.w3.org/2000/svg"
 width="500.000000pt" height="500.000000pt" viewBox="0 0 500.000000 500.000000"
 preserveAspectRatio="xMidYMid meet">
<metadata>
Created by potrace 1.14, written by Peter Selinger 2001-2017
</metadata>
<g transform="translate(0.000000,500.000000) scale(0.100000,-0.100000)"
fill="#000000" stroke="none">
<path d="M2431 4112 c-16 -5 -15 -182 2 -183 67 -6 157 -2 158 6 5 43 3 159
-3 168 -6 10 -133 17 -157 9z"/>
<path d="M1322 3763 c-1 -128 1 -143 16 -144 20 -1 233 -1 245 0 4 1 6 65 5
143 l-3 142 -131 1 -131 0 -1 -142z"/>
<path d="M2762 3708 l-1 -93 77 0 c42 0 82 3 87 7 6 3 10 44 10 90 l-1 83 -86
3 -86 3 0 -93z"/>
<path d="M1067 3613 c-3 -4 -5 -68 -5 -140 -1 -130 -1 -133 21 -134 97 -5 215
-4 227 2 13 6 15 31 15 141 l0 133 -127 3 c-69 1 -129 -1 -131 -5z"/>
<path d="M4205 3360 c-6 -11 0 -269 7 -275 3 -4 59 -7 122 -7 64 0 119 -5 122
-10 7 -11 5 -260 -1 -267 -3 -2 -60 -5 -127 -5 l-123 -1 -2 -85 c-3 -104 -3
-25 -1 -577 l2 -471 121 1 c119 1 151 -5 139 -24 -6 -10 -6 -527 0 -538 5 -7
229 -6 248 2 10 3 13 63 12 273 -1 148 2 274 6 279 5 6 59 9 130 9 l121 -2 -1
107 c-1 154 -2 573 -1 591 3 108 0 424 -4 430 -3 5 -56 8 -118 8 -61 0 -117 0
-123 1 -7 1 -10 48 -10 139 l1 137 123 1 c67 1 125 4 128 7 6 5 6 28 5 207
l-1 75 -127 -1 c-71 -1 -130 -2 -133 -3 -3 0 -5 -64 -5 -141 0 -144 -1 -148
-40 -140 -5 1 -32 1 -60 0 -55 -1 -60 -1 -109 1 -42 1 -42 2 -41 157 0 67 -2
122 -5 123 -20 4 -252 3 -255 -1z"/>
<path d="M1323 3197 l2 -142 133 -2 133 -1 -2 144 -2 144 -133 -1 -133 -1 2
-141z"/>
<path d="M38 2796 c-1 -1 -2 -256 -3 -567 l-2 -567 126 1 126 0 3 -278 c1
-161 6 -281 12 -285 5 -3 36 -5 70 -4 33 0 60 -2 60 -6 0 -4 -6 -7 -12 -8 -22
-2 -82 -13 -96 -17 -7 -3 -10 -9 -7 -15 3 -5 0 -7 -7 -5 -11 4 -13 -12 -12
-72 1 -99 2 -103 15 -103 6 0 17 -7 25 -15 8 -8 21 -12 29 -9 8 4 15 1 15 -5
0 -9 5 -9 20 -1 15 8 20 8 20 -2 0 -9 3 -9 12 0 9 9 16 8 32 -6 14 -12 17 -13
11 -2 -7 12 -6 13 7 3 8 -7 17 -11 19 -9 2 2 14 -7 27 -20 12 -13 18 -24 12
-24 -6 0 -8 -5 -3 -12 8 -15 12 -208 4 -208 -3 0 -6 -20 -6 -45 0 -25 5 -45
10 -45 6 0 3 -5 -5 -10 -8 -5 -11 -10 -6 -10 6 0 1 -7 -10 -16 -10 -8 -13 -13
-7 -9 7 3 13 0 13 -7 0 -9 3 -9 10 2 8 12 10 12 10 1 0 -9 4 -10 13 -3 7 5 21
6 32 1 29 -11 37 -11 29 3 -5 7 -3 8 5 3 18 -10 97 -14 113 -4 7 4 18 3 25 -3
9 -7 16 -6 25 4 18 19 19 29 10 98 -5 33 -6 60 -3 60 3 0 7 66 8 146 l2 145
-118 -3 c-80 -2 -122 1 -129 8 -6 7 -10 49 -10 98 1 47 -1 88 -4 91 -9 9 -51
17 -80 16 -16 -1 -28 2 -28 7 0 4 24 7 54 6 43 -1 55 2 58 15 2 9 3 136 2 284
l-1 267 26 1 c14 0 72 1 129 1 l102 0 0 567 0 567 -385 1 c-212 0 -386 -1
-387 -1z m601 -2199 c4 7 11 5 21 -5 13 -14 12 -15 -3 -9 -9 3 -19 2 -22 -3
-4 -6 -2 -10 4 -10 11 0 8 -47 -4 -58 -4 -4 -4 4 0 18 7 23 7 24 -10 10 -11
-8 -16 -10 -12 -3 4 6 4 13 0 16 -5 2 -2 2 5 1 17 -5 15 7 -5 22 -16 12 -16
13 -1 8 12 -4 16 -1 14 13 -2 10 -1 12 1 4 3 -9 7 -10 12 -4z"/>
<path d="M1853 2507 c-2 -4 -4 -68 -4 -142 l0 -135 -130 0 -129 0 -1 -32 c0
-18 0 -81 0 -140 l1 -108 -130 0 -130 0 -1 -27 c0 -16 -1 -80 -2 -143 l-2
-115 -122 0 c-67 0 -125 -4 -130 -8 -4 -5 -9 -63 -9 -130 -1 -67 -2 -127 -3
-133 -1 -8 -35 -12 -103 -12 -57 0 -114 -1 -128 -1 l-25 -1 0 -140 c0 -87 4
-140 10 -141 5 0 759 1 1675 1 916 1 1674 1 1686 1 20 0 21 4 20 133 -1 74 -4
138 -8 142 -4 4 -61 7 -125 7 -65 0 -120 3 -123 7 -3 5 -5 67 -4 138 1 112 -2
131 -15 134 -9 2 -67 3 -128 3 -68 0 -114 4 -116 10 -2 5 -3 70 -2 143 l1 132
-131 0 -131 0 1 131 c0 72 -2 135 -5 139 -3 5 -62 11 -130 12 l-125 3 0 138
c0 115 -2 137 -15 138 -78 6 -1283 2 -1287 -4z"/>
<path d="M4461 978 c-1 -57 -6 -95 -13 -100 -7 -3 -61 -7 -122 -7 -60 0 -111
-3 -114 -6 -3 -3 -6 -33 -6 -67 -1 -35 -5 -69 -9 -75 -5 -7 -5 -13 0 -13 4 0
8 -62 7 -137 0 -76 1 -143 3 -148 4 -12 187 -14 198 -3 4 4 18 3 30 -2 16 -6
25 -5 27 2 2 6 3 -23 2 -65 0 -42 3 -77 7 -77 8 0 13 15 10 33 -1 7 15 11 32
8 4 0 7 3 7 7 0 5 7 9 15 9 8 0 12 -4 9 -8 -2 -4 5 -11 17 -14 27 -9 127 -10
136 -2 10 11 12 57 2 63 -5 3 -7 10 -4 15 4 5 3 15 -2 22 -9 15 -13 31 -18 85
-4 33 -2 41 8 36 9 -6 9 -5 0 7 -10 12 -11 68 -3 89 1 3 2 8 2 11 -1 4 3 22 9
40 14 44 21 85 22 132 1 20 4 37 7 37 3 0 6 9 6 20 0 11 -3 20 -6 20 -3 0 -5
16 -6 35 0 19 4 35 10 35 5 0 1 7 -10 15 -10 8 -14 15 -7 15 8 0 9 9 3 29 -4
16 -5 33 -2 37 4 4 1 4 -5 0 -7 -4 -13 -2 -13 4 0 11 -49 8 -69 -5 -6 -3 -11
-1 -11 5 0 6 -5 8 -12 4 -18 -11 -68 -12 -68 -1 0 5 -6 4 -14 -2 -10 -8 -16
-9 -21 -1 -3 5 -12 10 -19 10 -9 0 -13 -26 -15 -92z"/>
</g>
</svg>
